<?xml version="1.0" encoding="utf-8"?>
<!-- Generator: Adobe Illustrator 23.0.3, SVG Export Plug-In . SVG Version: 6.00 Build 0)  -->
<svg version="1.1" id="Layer_1" xmlns="http://www.w3.org/2000/svg" xmlns:xlink="http://www.w3.org/1999/xlink" x="0px" y="0px"
	 viewBox="0 0 197 314" style="enable-background:new 0 0 197 314;" xml:space="preserve">
<style type="text/css">
	.st0{fill:#D1D1D0;}
	.st1{fill:#FFFFFF;}
	.st2{fill:#43A1B5;}
	.st3{fill:#385B7D;}
	.st4{fill:#E6E6E6;}
	.st5{fill:#828282;}
	.st6{fill:#9E9E9D;}
	.st7{fill:#DE5D40;}
	.st8{fill:#FFF28A;}
	.st9{fill:#BCBCBC;}
</style>
<path class="st0" d="M99.04,5.55c-15.69,0-38.8,49.43-38.8,88.13c0,26.38,0,130.19,0,130.19s10.82,2,38.8,2c28.16,0,38.8-2,38.8-2
	s0-103.81,0-130.19C137.84,54.98,114.73,5.55,99.04,5.55z"/>
<path class="st1" d="M60.25,205.25c0,13.81,0,19.74,0,19.74s10.82,0.89,38.8,0.89c28.16,0,38.8-0.89,38.8-0.89s0-5.93,0-19.74
	c0,0-10.63,0.88-38.8,0.88C71.07,206.13,60.25,205.25,60.25,205.25z"/>
<path class="st2" d="M60.25,211.73c0,8.01,0,13.26,0,13.26s10.82,0.89,38.8,0.89c28.16,0,38.8-0.89,38.8-0.89s0-5.24,0-13.26
	c0,0-10.63,0.89-38.8,0.89C71.07,212.62,60.25,211.73,60.25,211.73z"/>
<g>
	<path class="st3" d="M112.03,119.46c5.06,7.18,3.34,17.09-3.83,22.15c-7.18,5.05-17.1,3.33-22.15-3.85
		c-5.05-7.18-3.33-17.09,3.84-22.15C97.06,110.57,106.98,112.28,112.03,119.46z"/>
	<path class="st4" d="M108.84,121.71c3.81,5.42,2.52,12.89-2.89,16.71c-5.41,3.81-12.88,2.52-16.7-2.9
		c-3.81-5.41-2.52-12.89,2.89-16.69C97.55,115.01,105.03,116.3,108.84,121.71z"/>
	<path class="st1" d="M94.62,117.49l-5.73,17.46c0.11,0.19,0.22,0.39,0.35,0.57c0.39,0.54,0.82,1.03,1.27,1.5l6.63-20.22
		C96.29,116.93,95.44,117.16,94.62,117.49z"/>
	<path class="st1" d="M98.77,116.64l-7.04,21.46c1.64,1.27,3.57,2.06,5.57,2.36l7.35-22.43
		C102.84,117.07,100.81,116.59,98.77,116.64z"/>
	<path class="st1" d="M103.17,139.86l5.86-17.85c-0.07-0.1-0.12-0.19-0.19-0.3c-0.61-0.88-1.33-1.62-2.11-2.28l-6.94,21.14
		C100.93,140.49,102.07,140.26,103.17,139.86z"/>
</g>
<g>
	<path class="st3" d="M108.84,158.32c3.81,5.41,2.51,12.89-2.89,16.7c-5.42,3.81-12.9,2.51-16.71-2.89
		c-3.81-5.41-2.52-12.89,2.9-16.71C97.55,151.61,105.04,152.9,108.84,158.32z"/>
	<path class="st4" d="M106.43,160.02c2.88,4.07,1.89,9.71-2.19,12.59c-4.08,2.87-9.72,1.89-12.59-2.18
		c-2.88-4.09-1.9-9.73,2.19-12.59C97.92,154.96,103.56,155.94,106.43,160.02z"/>
	<path class="st1" d="M95.71,156.83L91.39,170c0.09,0.14,0.17,0.29,0.27,0.43c0.29,0.41,0.61,0.77,0.95,1.12l5.01-15.24
		C96.97,156.41,96.33,156.58,95.71,156.83z"/>
	<path class="st1" d="M98.84,156.18l-5.31,16.2c1.24,0.95,2.69,1.56,4.2,1.78l5.55-16.91C101.91,156.51,100.38,156.15,98.84,156.18z
		"/>
	<path class="st1" d="M102.16,173.69l4.41-13.45c-0.05-0.07-0.09-0.15-0.14-0.22c-0.47-0.66-1.01-1.23-1.6-1.73l-5.23,15.93
		C100.47,174.19,101.32,174,102.16,173.69z"/>
</g>
<g>
	<path class="st3" d="M108.84,85.33c3.81,5.41,2.51,12.89-2.89,16.7c-5.42,3.81-12.9,2.51-16.71-2.9c-3.81-5.41-2.52-12.89,2.9-16.7
		C97.55,78.62,105.04,79.92,108.84,85.33z"/>
	<path class="st4" d="M106.43,87.03c2.88,4.07,1.89,9.71-2.19,12.58c-4.08,2.87-9.72,1.9-12.59-2.18c-2.88-4.09-1.9-9.72,2.19-12.58
		C97.92,81.97,103.56,82.95,106.43,87.03z"/>
	<path class="st1" d="M95.71,83.84l-4.32,13.17c0.09,0.14,0.17,0.29,0.27,0.42c0.29,0.41,0.61,0.78,0.95,1.13l5.01-15.24
		C96.97,83.42,96.33,83.59,95.71,83.84z"/>
	<path class="st1" d="M98.84,83.2l-5.31,16.19c1.24,0.96,2.69,1.55,4.2,1.78l5.55-16.91C101.91,83.53,100.38,83.16,98.84,83.2z"/>
	<path class="st1" d="M102.16,100.7l4.41-13.46c-0.05-0.07-0.09-0.15-0.14-0.21c-0.47-0.66-1.01-1.23-1.6-1.73l-5.23,15.94
		C100.47,101.19,101.32,101.01,102.16,100.7z"/>
</g>
<path class="st5" d="M128.94,46.63c-8.17-22.91-20.38-41.07-29.89-41.07c-9.51,0-21.73,18.16-29.89,41.07H128.94z"/>
<path class="st1" d="M65.87,56.9h66.36c-1-3.5-2.1-6.93-3.3-10.27H69.15C67.96,49.97,66.86,53.4,65.87,56.9z"/>
<g>
	<path class="st6" d="M23.47,191.2c0,0,22.63-10.04,28.17-10.04c6.49,0,8.74-15.49,8.67-32.96l-0.06,50.92c0,0-1.13-6.44-7.47-6.62
		c-6.35-0.18-7.2,6.62-7.2,6.62L23.47,191.2z"/>
	<path class="st6" d="M178.86,193.38c0,0-26.87-12.22-32.42-12.22c-6.5,0-8.74-15.49-8.68-32.96l0.07,50.92c0,0,1.13-6.44,7.47-6.62
		c6.35-0.18,9.81,12.74,9.81,12.74L178.86,193.38z"/>
	<g>
		<g>
			<path class="st7" d="M16.19,228.63h13.56H43.3c0,0,26.15,35.99-13.55,68.66C-9.95,264.62,16.19,228.63,16.19,228.63z"/>
			<path class="st7" d="M18.67,228.63h11.08h11.08c0,0,21.39,29.44-11.08,56.17C-2.72,258.07,18.67,228.63,18.67,228.63z"/>
			<path class="st8" d="M22.09,228.63h7.67h7.66c0,0,14.8,20.37-7.66,38.87C7.28,249.01,22.09,228.63,22.09,228.63z"/>
			<path class="st3" d="M16.18,228.45c-0.15-1.47-0.76-11.62,13.58-11.62c15.43,0,13.55,11.8,13.55,11.8H16.14L16.18,228.45z"/>
		</g>
		<rect x="8.5" y="235.69" class="st1" width="42.5" height="7.33"/>
		<path class="st9" d="M8.68,214.61c0-12.88,9.56-23.4,21.25-23.4c11.68,0,21.25,10.53,21.25,23.4v21.79H8.68V214.61z"/>
	</g>
	<g>
		<g>
			<path class="st7" d="M156.25,228.63h13.56h13.55c0,0,26.15,35.99-13.55,68.66C130.11,264.62,156.25,228.63,156.25,228.63z"/>
			<path class="st7" d="M158.72,228.63h11.08h11.08c0,0,21.39,29.44-11.08,56.17C137.34,258.07,158.72,228.63,158.72,228.63z"/>
			<path class="st8" d="M162.14,228.63h7.67h7.66c0,0,14.8,20.37-7.66,38.87C147.33,249.01,162.14,228.63,162.14,228.63z"/>
			<path class="st3" d="M156.23,228.45c-0.15-1.47-0.76-11.62,13.58-11.62c15.43,0,13.55,11.8,13.55,11.8h-27.16L156.23,228.45z"/>
		</g>
		<rect x="148.55" y="235.69" class="st1" width="42.5" height="7.33"/>
		<path class="st9" d="M148.74,214.61c0-12.88,9.56-23.4,21.25-23.4c11.68,0,21.25,10.53,21.25,23.4v21.79h-42.5V214.61z"/>
	</g>
</g>
<g>
	<g>
		<path class="st7" d="M114.63,226.66h-14.47H85.7c0,0-27.93,38.43,14.47,73.34C142.57,265.09,114.63,226.66,114.63,226.66z"/>
		<path class="st7" d="M112,226.66h-11.84H88.33c0,0-22.85,31.43,11.83,59.99C134.84,258.1,112,226.66,112,226.66z"/>
		<path class="st8" d="M108.36,226.66h-8.2h-8.18c0,0-15.81,21.76,8.18,41.51C124.16,248.42,108.36,226.66,108.36,226.66z"/>
		<path class="st3" d="M114.66,226.46c0.17-1.56,0.81-12.41-14.5-12.41c-16.49,0-14.47,12.61-14.47,12.61h29.02L114.66,226.46z"/>
	</g>
	<path class="st9" d="M122.86,210.93c0-13.75-10.22-25-22.7-25c-12.49,0-22.69,11.24-22.69,25v23.27h45.39V210.93z"/>
	<rect x="77.47" y="234.2" class="st1" width="45.39" height="7.82"/>
</g>
</svg>
